<?xml version="1.0" encoding="UTF-8" standalone="no"?>
<svg
   version="1.2"
   viewBox="0 0 684.56946 684.56946"
   width="684.56946"
   height="684.56946"
   id="svg1"
   xmlns="http://www.w3.org/2000/svg"
   xmlns:svg="http://www.w3.org/2000/svg"
   xmlns:rdf="http://www.w3.org/1999/02/22-rdf-syntax-ns#"
   xmlns:cc="http://creativecommons.org/ns#"
   xmlns:dc="http://purl.org/dc/elements/1.1/">
  <defs
     id="defs1" />
  <title
     id="title1">Logo-svg</title>
  <style
     id="style1">
		tspan { white-space:pre } 
		.s0 { fill: #7a232f } 
		.t1 { font-size: 13px;fill: #000000;font-weight: 400;font-family: &quot;LiberationSans&quot;, &quot;Liberation Sans&quot; } 
	</style>
  <circle
     style="fill:#faf9f9;fill-opacity:1;stroke-width:58.2598"
     id="path1"
     cx="-342.28473"
     cy="-342.28473"
     r="342.28473"
     transform="scale(-1)" />
  <g
     id="g1"
     transform="matrix(0.90279811,0,0,0.90279811,29.901373,12.824012)">
    <path
       id="Layer"
       class="s0"
       d="m 42.706078,378.99153 c 0.269581,-0.98846 0.808741,-11.68182 1.347902,-23.81294 0.808742,-20.66784 1.078322,-22.73462 4.043708,-34.59616 1.797203,-6.91923 4.403148,-19.4098 5.930771,-27.85665 3.414686,-18.78078 7.638114,-31.45106 16.62413,-49.87239 3.774127,-7.63812 8.267135,-17.07343 9.884618,-21.02728 1.707343,-3.86399 3.774127,-8.08742 4.762589,-9.43532 0.898601,-1.25804 3.234966,-5.03217 5.211889,-8.26713 5.032169,-8.357 12.580425,-17.52274 23.723085,-29.1147 5.30175,-5.39161 11.23252,-12.04126 13.20944,-14.6472 4.04371,-5.39161 22.91434,-22.73463 33.87728,-31.00176 19.94896,-15.27623 31.8105,-22.82448 44.2112,-28.30595 6.82938,-3.055248 18.33148,-8.536718 25.61015,-12.220984 13.92833,-7.098953 15.45595,-7.548254 42.68358,-12.670284 12.67028,-2.426224 27.13777,-3.774126 37.56155,-3.594406 23.0042,0.449301 48.16505,1.797203 55.7133,2.875525 4.94231,0.718881 11.77168,1.707343 15.27623,2.066784 7.54825,0.898602 18.42133,3.414686 30.37273,7.098953 4.85245,1.527623 12.22098,3.414686 16.44441,4.133567 21.83602,4.133568 72.96646,34.326585 97.85772,57.869945 3.50455,3.23497 10.33392,9.34546 15.18637,13.56889 13.02972,11.23252 38.99931,40.07763 50.14197,55.62344 11.59196,16.17483 29.56399,50.14197 31.63078,59.57729 0.62902,3.1451 2.42622,8.35699 4.04371,11.77168 1.52762,3.32482 2.78566,6.29021 2.78566,6.46993 0,0.26958 1.70734,3.95385 3.68427,8.17727 5.66119,11.86155 11.59196,30.37274 11.59196,36.03393 0,2.60594 0.62902,9.2556 1.43776,14.82693 1.07832,7.45839 1.52762,17.34301 1.61748,37.11224 0.0899,29.74372 -0.62902,37.02239 -4.94231,52.5682 -1.43776,5.21189 -2.87552,10.87308 -3.1451,12.58042 -0.26958,1.70735 -1.25804,6.20035 -2.15665,9.88462 -0.98846,3.68427 -2.33636,10.33392 -3.1451,14.64721 -1.43776,7.81783 -9.52518,31.36119 -13.47903,39.26889 -3.41468,6.64965 -24.26224,37.38183 -29.20455,42.95316 -2.51608,2.78566 -6.11049,7.27867 -7.90769,9.97448 -3.14511,4.67272 -7.81784,8.80629 -28.39581,25.61014 -8.08742,6.55979 -24.98113,17.61259 -26.95805,17.61259 -0.4493,0 -2.42623,1.34791 -4.49301,2.96539 -2.06679,1.61748 -5.30175,3.95385 -7.27868,5.12203 -1.97692,1.16818 -7.45839,4.67273 -12.13112,7.72797 -5.30175,3.50455 -10.96294,6.38007 -14.82692,7.54826 -3.50455,1.07832 -8.08742,2.87552 -10.33392,3.95384 -2.24651,1.16819 -5.66119,2.60595 -7.63812,3.23497 -1.97692,0.62902 -6.38007,2.33636 -9.70489,3.77413 -7.99756,3.41468 -26.50875,6.73951 -49.78254,8.89615 -11.77168,1.07833 -38.55001,0.62902 -50.14197,-0.80874 -4.49301,-0.53916 -15.00664,-1.70734 -23.36364,-2.51608 -8.44686,-0.80874 -17.07343,-1.97693 -19.31993,-2.60595 -24.26225,-6.64965 -32.97869,-10.06434 -52.65806,-20.48811 -8.62658,-4.58287 -11.77168,-6.64966 -32.52938,-21.83602 -5.30175,-3.77413 -15.81539,-13.47903 -26.68847,-24.26225 -19.76923,-19.76923 -29.83357,-32.7091 -35.58462,-45.82868 -1.70735,-3.95385 -5.48147,-11.77168 -8.357,-17.43287 -11.0528,-21.38672 -13.11958,-25.78987 -15.72553,-33.69757 -1.43776,-4.40314 -3.05524,-11.9514 -3.68426,-16.62413 -0.53917,-4.67272 -1.97693,-12.76014 -3.14511,-17.97203 -1.16818,-5.21189 -2.33636,-11.86154 -2.60594,-14.82693 -0.35945,-2.96538 -1.07833,-8.80629 -1.61749,-12.85 -0.80874,-5.84091 -0.80874,-10.69336 0.0899,-21.11714 1.61749,-19.49965 3.50455,-34.59616 5.03217,-39.26889 0.71888,-2.2465 1.97693,-7.27867 2.69581,-11.23252 1.97692,-10.33392 7.00909,-24.53182 12.58042,-35.94407 2.6958,-5.39161 8.08741,-16.89371 12.04126,-25.34056 3.86399,-8.53672 9.34546,-18.69092 11.9514,-22.46504 2.69581,-3.86399 5.12203,-7.72798 5.48147,-8.62658 0.35944,-0.98846 1.43777,-1.88706 2.42623,-2.15664 1.07832,-0.26958 2.96538,-2.87553 4.85245,-6.91923 6.73951,-13.74861 28.21609,-37.29197 42.14441,-46.09827 7.4584,-4.67273 18.24162,-9.97448 23.54337,-11.5021 2.87552,-0.80874 7.18881,-2.42622 9.43531,-3.59441 7.81784,-3.86398 21.47658,-7.36853 31.00176,-7.90769 4.94231,-0.26958 13.83847,-1.43776 19.76924,-2.60595 9.16573,-1.7972 13.38916,-2.06678 28.30595,-1.97692 22.19546,0.17972 48.34477,3.41469 56.34232,7.09895 2.78567,1.25805 7.45839,2.87553 10.51364,3.68427 8.26713,2.06678 35.8542,16.80385 42.23428,22.37518 2.87552,2.60595 9.61503,7.09895 15.00664,9.88462 7.81784,4.13357 11.59196,6.91923 18.87064,13.7486 13.83846,13.02973 26.86819,30.37274 31.54092,41.78498 1.43776,3.59441 4.40314,9.52518 6.55979,13.20944 9.52517,16.35455 15.81539,55.17415 13.20944,82.31191 -1.43776,14.46749 -8.44685,46.63743 -12.76014,58.31925 -8.62658,23.36364 -12.85001,31.45106 -26.68847,51.22029 -1.7972,2.51609 -6.20035,9.16574 -9.97448,14.82693 -12.13112,18.5112 -16.44441,22.46504 -45.64896,41.87484 -17.97203,11.86154 -30.28288,17.52273 -41.69512,19.14021 -22.5549,3.14511 -44.75036,3.05525 -65.59792,-0.35944 -4.67273,-0.71888 -10.1542,-1.52762 -12.13112,-1.70734 -10.24406,-1.07832 -33.51784,-12.04126 -47.17659,-22.1056 -6.82937,-5.03217 -27.13776,-26.14931 -37.74126,-39.26889 -8.89616,-10.96294 -19.8591,-33.6077 -24.35211,-50.59128 -1.43776,-5.48147 -2.06678,-37.29196 -0.8986,-50.14197 1.25804,-14.10804 5.84091,-33.51784 10.51364,-44.48078 1.7972,-4.0437 5.48147,-11.77168 8.26713,-17.25315 5.84091,-11.23252 13.11959,-19.31993 23.90281,-26.23917 3.41468,-2.2465 8.26713,-5.93077 10.78322,-8.35699 7.63811,-7.09896 21.56644,-15.09651 32.7091,-18.78078 3.05524,-0.98846 9.70489,-2.2465 14.73706,-2.78566 5.03217,-0.53916 9.52518,-1.25804 9.88462,-1.43776 1.52762,-0.98847 21.6563,-0.35944 31.00176,0.8986 10.96294,1.52762 22.73462,5.39161 34.41644,11.32238 3.68427,1.88706 9.07588,4.49301 11.9514,5.75105 7.27868,3.1451 15.27623,9.61504 19.4098,15.63567 1.97692,2.78566 5.21189,6.73951 7.27867,8.71643 8.26714,7.81784 19.94896,29.02484 21.11714,38.19057 0.26958,2.24651 1.16818,7.72798 1.97692,12.13112 1.97693,11.14267 1.97693,26.14931 0,34.68603 -5.03217,21.74616 -14.82692,42.95316 -21.92588,47.71575 -1.88706,1.25804 -5.66119,4.13356 -8.35699,6.46993 -5.12203,4.40314 -9.34546,7.00909 -26.86819,16.71399 -8.62658,4.76259 -12.22098,6.11049 -22.46504,8.62657 -13.83847,3.41469 -16.98357,3.59441 -28.39581,1.61749 -6.46994,-1.07833 -9.7049,-2.24651 -16.17483,-5.84091 -10.87308,-6.02064 -21.02728,-14.73707 -29.02484,-25.07099 -10.69336,-13.65875 -13.20944,-21.56644 -12.49056,-39.08917 0.4493,-11.77168 1.3479,-15.45595 7.00909,-27.04791 2.78567,-5.84091 4.76259,-8.53672 9.88462,-13.20945 8.53672,-7.99755 13.47903,-10.24405 24.26225,-11.41224 4.67273,-0.4493 11.14266,-1.70734 14.37762,-2.6958 7.63812,-2.33637 8.8063,-2.33637 16.44441,1.25804 7.4584,3.41469 13.38917,8.357 15.81539,13.02973 2.69581,5.30174 4.76259,16.71399 4.31329,23.36364 -0.4493,5.48147 -3.05525,12.67028 -5.03217,13.92832 -0.4493,0.26958 -3.77413,0.8986 -7.45839,1.43777 -8.8063,1.3479 -11.95141,2.42622 -15.18637,5.12203 -5.12203,4.22342 -5.39161,13.2993 -0.62902,18.69091 3.05524,3.50455 14.10804,5.66119 21.56644,4.13357 12.4007,-2.42623 22.37518,-9.34546 25.07098,-17.34301 0.53916,-1.61749 1.43777,-3.59441 2.06679,-4.31329 2.33636,-2.78567 3.32482,-5.75105 5.84091,-17.61259 2.96538,-13.47903 3.23496,-18.60106 1.3479,-24.80141 -0.71888,-2.33636 -1.52762,-6.73951 -1.88706,-9.7049 -1.52763,-13.2993 -22.64477,-38.99931 -38.55001,-46.72728 -2.96539,-1.52763 -9.61504,-3.50455 -14.82693,-4.58287 -9.07588,-1.7972 -9.7049,-1.7972 -18.42133,-0.35944 -9.97448,1.70734 -11.86155,2.51608 -17.52274,7.18881 -2.15664,1.7972 -7.45839,5.66119 -11.77168,8.62658 -14.73706,10.1542 -31.45106,27.94651 -37.65141,40.25735 -4.0437,7.99755 -9.61503,35.22518 -8.62657,41.78498 0.35944,2.06678 1.97692,9.34545 3.68426,16.26469 1.61749,6.91923 3.23497,15.0965 3.50455,18.15175 0.26958,3.14511 1.07832,7.09895 1.7972,8.8063 1.79721,4.31328 14.55735,23.72308 17.52274,26.5986 1.25804,1.25805 4.67272,4.94231 7.45839,8.17728 9.43532,10.87308 26.23917,20.12868 41.78498,23.09406 5.03216,0.98846 13.38916,2.06678 18.60105,2.42623 7.99755,0.53916 10.24406,0.35944 15.54581,-1.25805 3.32482,-0.98846 11.9514,-2.6958 19.14021,-3.77412 13.56889,-1.88707 14.46749,-2.24651 31.45106,-10.6035 9.2556,-4.58287 11.32238,-6.11049 20.12868,-14.55735 9.52517,-9.2556 13.2993,-13.65874 27.49721,-32.34966 8.35699,-10.87308 16.35455,-25.87973 21.56644,-40.52693 3.32482,-9.16574 3.77412,-11.5021 4.58286,-22.82448 0.44931,-6.91924 1.25805,-15.36609 1.70735,-18.87064 0.8986,-6.29021 0.35944,-14.64721 -1.70735,-27.49721 -0.98846,-5.75105 -6.82937,-20.57798 -12.76014,-32.52938 -3.41468,-6.73951 -15.45595,-23.72308 -21.83602,-30.91189 -2.60594,-2.87553 -5.57133,-6.46994 -6.55979,-7.99756 -1.3479,-1.88706 -3.86399,-3.50455 -8.17728,-5.12203 -8.80629,-3.50454 -20.93741,-10.69336 -29.74371,-17.61259 -9.16574,-7.18881 -19.76924,-14.10805 -28.93497,-18.96049 -8.53672,-4.40315 -14.28777,-5.21189 -39.89792,-6.02064 -15.45594,-0.4493 -19.85909,-0.26958 -24.26224,0.89861 -9.07588,2.33636 -15.09651,4.9423 -20.03882,8.62657 -2.60594,1.97692 -6.29021,3.86399 -8.08741,4.22343 -4.67273,0.80874 -20.21854,9.61504 -26.14931,14.73707 -2.78566,2.33636 -9.88462,7.36853 -15.72553,11.14266 -5.93077,3.86398 -11.59196,7.99755 -12.58042,9.34545 -1.07832,1.34791 -5.48147,6.46994 -9.88462,11.41224 -10.24406,11.50211 -18.06189,22.01574 -18.87063,25.34057 -0.35944,1.3479 -1.70735,3.86399 -2.87553,5.39161 -3.95384,5.21189 -11.5021,30.19302 -13.38916,44.30106 -0.71888,5.21189 -2.24651,12.13112 -3.41469,15.27623 -1.52762,3.95385 -2.42622,8.80629 -2.78566,14.82693 -0.35944,4.9423 -1.07833,12.22098 -1.61749,16.17483 -1.07832,7.81783 0.0899,27.58707 2.51609,41.33567 0.71888,3.95385 2.06678,11.68182 2.96538,17.16329 1.79721,10.51364 4.22343,16.26469 12.22099,29.564 2.06678,3.41468 5.57133,9.70489 7.72797,13.92832 4.85245,9.43532 13.38916,18.42133 24.17238,25.34057 4.22343,2.78566 12.67029,9.7049 18.87064,15.45595 20.7577,19.40979 36.3035,30.82203 45.73882,33.33812 2.24651,0.62902 6.20035,1.97692 8.71644,2.96538 2.51608,0.98846 8.62657,2.87553 13.47902,4.22343 4.94231,1.25804 11.9514,3.50455 15.63567,4.94231 3.68427,1.43776 9.52518,3.23496 13.02972,4.04371 3.41469,0.80874 7.81784,2.2465 9.7049,3.1451 3.05525,1.61748 5.30175,1.7972 25.25071,1.7972 17.25315,0 22.5549,-0.26958 25.07098,-1.3479 1.70735,-0.71888 8.17728,-1.97692 14.28777,-2.78566 6.73951,-0.8986 15.27623,-2.78567 21.83602,-4.85245 5.93077,-1.88706 13.02972,-3.86399 15.72553,-4.49301 8.26713,-1.88706 31.99022,-15.18637 48.16505,-27.04791 16.35455,-12.04126 26.41888,-22.19546 43.49232,-43.94162 9.25559,-11.68182 14.01818,-18.60105 27.22763,-39.08917 5.12202,-7.90769 5.03216,-7.72797 9.97447,-25.61015 3.23497,-11.41224 4.49301,-18.06189 5.57133,-28.75525 1.79721,-17.70245 1.70735,-40.52693 -0.17972,-54.3654 -0.71888,-5.93077 -1.88706,-15.18637 -2.60594,-20.66784 -0.62902,-5.39161 -1.52762,-10.87308 -2.06679,-12.13112 -0.4493,-1.25804 -1.52762,-6.02063 -2.42622,-10.6035 -1.25804,-6.55979 -2.33636,-9.52518 -5.03217,-13.7486 -1.97692,-2.96539 -3.50454,-5.57133 -3.50454,-5.84091 0,-2.51609 -19.31994,-39.89792 -26.95805,-52.02904 -1.79721,-2.96538 -4.49301,-7.63811 -5.84091,-10.33392 -8.8063,-17.43287 -35.58463,-47.53602 -59.30771,-66.58638 -7.81784,-6.29021 -21.6563,-15.81539 -26.50875,-18.33147 -1.70734,-0.8986 -6.02063,-3.50455 -9.43532,-5.75105 -8.71643,-5.84091 -15.09651,-9.34546 -22.46504,-12.22098 -3.50455,-1.34791 -6.91923,-2.96539 -7.63811,-3.68427 -3.23497,-2.78567 -22.28532,-7.54826 -41.33568,-10.33392 -10.6035,-1.52762 -22.46504,-3.68427 -26.32903,-4.94231 -6.29021,-1.88706 -8.62657,-2.15664 -22.01574,-2.15664 -17.88217,0.0899 -29.92343,1.07832 -39.44861,3.50454 -3.86399,0.98846 -9.61504,1.97693 -12.85,2.33637 -9.79476,0.98846 -28.75525,5.84091 -35.22519,8.98601 -6.82937,3.50455 -14.37762,8.17728 -27.40735,17.07343 -5.12203,3.41469 -14.10804,9.34546 -20.03881,13.02973 -13.29931,8.26713 -20.39826,14.55735 -34.32659,30.82203 -8.89615,10.33392 -12.85,15.99511 -23.0042,32.79896 -15.00664,24.98113 -30.55245,58.58883 -33.33812,71.88814 -0.53916,2.6958 -2.15664,7.72797 -3.5944,11.23252 -3.23497,7.90769 -6.5598,18.69091 -8.53672,27.13777 -0.808742,3.50454 -2.066784,8.53671 -2.785665,11.23252 -1.707343,6.82937 -4.133568,31.63077 -4.672729,49.42309 -0.359441,13.11958 -0.08986,16.98357 2.336364,34.14686 1.437763,10.6035 3.055246,20.48812 3.594407,21.83602 0.539161,1.43776 1.976924,8.71643 3.234963,16.17483 1.25805,7.54825 3.41469,17.70245 4.85245,22.64476 6.73951,23.54336 6.73951,23.4535 17.88217,44.93008 1.07833,1.97692 3.59441,7.45839 5.75105,12.13112 2.15665,4.67273 5.48147,10.69336 7.54826,13.47903 4.85245,6.55979 5.21189,8.35699 2.87552,14.6472 -1.97692,5.39161 -4.76258,8.44686 -10.6035,11.41225 -6.46993,3.32482 -10.51363,3.77412 -18.87063,2.33636 -4.22343,-0.71888 -8.44686,-1.61748 -9.43532,-1.97692 -3.055243,-1.16819 -11.502098,-7.09896 -15.455945,-10.96294 -4.403148,-4.22343 -5.57133,-6.38008 -11.951402,-21.74616 -2.605945,-6.20036 -5.751051,-13.20945 -6.919233,-15.72553 -1.258042,-2.42623 -3.684266,-9.7049 -5.48147,-16.17483 -1.707343,-6.38007 -3.863987,-14.46749 -4.762588,-17.97203 -0.988462,-3.41469 -2.695805,-12.58043 -3.953848,-20.3084 -1.168182,-7.72798 -2.605944,-15.81539 -3.055245,-17.97203 -0.988462,-4.58287 -2.516085,-18.87064 -3.234966,-31.8105 -0.359441,-4.94231 -0.988462,-12.40071 -1.437763,-16.62413 -0.898601,-8.08742 -1.887063,-42.32414 -1.258042,-45.37939 z"
       style="stroke-width:0.898602" />
    <text
       id="Text layer 3"><tspan
         x="0"
         y="15.6"
         class="t1"
         id="tspan1" /></text>
  </g>
  <metadata
     id="metadata1">
    <rdf:RDF>
      <cc:Work
         rdf:about="">
        <dc:title>Logo-svg</dc:title>
      </cc:Work>
    </rdf:RDF>
  </metadata>
</svg>
