<svg version="1.2" xmlns="http://www.w3.org/2000/svg" viewBox="0 0 692 730" width="692" height="730">
	<title>Logo-svg</title>
	<style>
		tspan { white-space:pre } 
		.s0 { fill: #7a232f } 
		.t1 { font-size: 13px;fill: #000000;font-weight: 400;font-family: "LiberationSans", "Liberation Sans" } 
	</style>
	<g id="Layer">
		<path id="Layer" class="s0" d="m8.5 380.5c0.3-1.1 0.9-13 1.5-26.5 0.9-23 1.2-25.3 4.5-38.5 2-7.7 4.9-21.6 6.6-31 3.8-20.9 8.5-35 18.5-55.5 4.2-8.5 9.2-19 11-23.4 1.9-4.3 4.2-9 5.3-10.5 1-1.4 3.6-5.6 5.8-9.2 5.6-9.3 14-19.5 26.4-32.4 5.9-6 12.5-13.4 14.7-16.3 4.5-6 25.5-25.3 37.7-34.5 22.2-17 35.4-25.4 49.2-31.5 7.6-3.4 20.4-9.5 28.5-13.6 15.5-7.9 17.2-8.4 47.5-14.1 14.1-2.7 30.2-4.2 41.8-4 25.6 0.5 53.6 2 62 3.2 5.5 0.8 13.1 1.9 17 2.3 8.4 1 20.5 3.8 33.8 7.9 5.4 1.7 13.6 3.8 18.3 4.6 24.3 4.6 81.2 38.2 108.9 64.4 3.9 3.6 11.5 10.4 16.9 15.1 14.5 12.5 43.4 44.6 55.8 61.9 12.9 18 32.9 55.8 35.2 66.3 0.7 3.5 2.7 9.3 4.5 13.1 1.7 3.7 3.1 7 3.1 7.2 0 0.3 1.9 4.4 4.1 9.1 6.3 13.2 12.9 33.8 12.9 40.1 0 2.9 0.7 10.3 1.6 16.5 1.2 8.3 1.7 19.3 1.8 41.3 0.1 33.1-0.7 41.2-5.5 58.5-1.6 5.8-3.2 12.1-3.5 14-0.3 1.9-1.4 6.9-2.4 11-1.1 4.1-2.6 11.5-3.5 16.3-1.6 8.7-10.6 34.9-15 43.7-3.8 7.4-27 41.6-32.5 47.8-2.8 3.1-6.8 8.1-8.8 11.1-3.5 5.2-8.7 9.8-31.6 28.5-9 7.3-27.8 19.6-30 19.6-0.5 0-2.7 1.5-5 3.3-2.3 1.8-5.9 4.4-8.1 5.7-2.2 1.3-8.3 5.2-13.5 8.6-5.9 3.9-12.2 7.1-16.5 8.4-3.9 1.2-9 3.2-11.5 4.4-2.5 1.3-6.3 2.9-8.5 3.6-2.2 0.7-7.1 2.6-10.8 4.2-8.9 3.8-29.5 7.5-55.4 9.9-13.1 1.2-42.9 0.7-55.8-0.9-5-0.6-16.7-1.9-26-2.8-9.4-0.9-19-2.2-21.5-2.9-27-7.4-36.7-11.2-58.6-22.8-9.6-5.1-13.1-7.4-36.2-24.3-5.9-4.2-17.6-15-29.7-27-22-22-33.2-36.4-39.6-51-1.9-4.4-6.1-13.1-9.3-19.4-12.3-23.8-14.6-28.7-17.5-37.5-1.6-4.9-3.4-13.3-4.1-18.5-0.6-5.2-2.2-14.2-3.5-20-1.3-5.8-2.6-13.2-2.9-16.5-0.4-3.3-1.2-9.8-1.8-14.3-0.9-6.5-0.9-11.9 0.1-23.5 1.8-21.7 3.9-38.5 5.6-43.7 0.8-2.5 2.2-8.1 3-12.5 2.2-11.5 7.8-27.3 14-40 3-6 9-18.8 13.4-28.2 4.3-9.5 10.4-20.8 13.3-25 3-4.3 5.7-8.6 6.1-9.6 0.4-1.1 1.6-2.1 2.7-2.4 1.2-0.3 3.3-3.2 5.4-7.7 7.5-15.3 31.4-41.5 46.9-51.3 8.3-5.2 20.3-11.1 26.2-12.8 3.2-0.9 8-2.7 10.5-4 8.7-4.3 23.9-8.2 34.5-8.8 5.5-0.3 15.4-1.6 22-2.9 10.2-2 14.9-2.3 31.5-2.2 24.7 0.2 53.8 3.8 62.7 7.9 3.1 1.4 8.3 3.2 11.7 4.1 9.2 2.3 39.9 18.7 47 24.9 3.2 2.9 10.7 7.9 16.7 11 8.7 4.6 12.9 7.7 21 15.3 15.4 14.5 29.9 33.8 35.1 46.5 1.6 4 4.9 10.6 7.3 14.7 10.6 18.2 17.6 61.4 14.7 91.6-1.6 16.1-9.4 51.9-14.2 64.9-9.6 26-14.3 35-29.7 57-2 2.8-6.9 10.2-11.1 16.5-13.5 20.6-18.3 25-50.8 46.6-20 13.2-33.7 19.5-46.4 21.3-25.1 3.5-49.8 3.4-73-0.4-5.2-0.8-11.3-1.7-13.5-1.9-11.4-1.2-37.3-13.4-52.5-24.6-7.6-5.6-30.2-29.1-42-43.7-9.9-12.2-22.1-37.4-27.1-56.3-1.6-6.1-2.3-41.5-1-55.8 1.4-15.7 6.5-37.3 11.7-49.5 2-4.5 6.1-13.1 9.2-19.2 6.5-12.5 14.6-21.5 26.6-29.2 3.8-2.5 9.2-6.6 12-9.3 8.5-7.9 24-16.8 36.4-20.9 3.4-1.1 10.8-2.5 16.4-3.1 5.6-0.6 10.6-1.4 11-1.6 1.7-1.1 24.1-0.4 34.5 1 12.2 1.7 25.3 6 38.3 12.6 4.1 2.1 10.1 5 13.3 6.4 8.1 3.5 17 10.7 21.6 17.4 2.2 3.1 5.8 7.5 8.1 9.7 9.2 8.7 22.2 32.3 23.5 42.5 0.3 2.5 1.3 8.6 2.2 13.5 2.2 12.4 2.2 29.1 0 38.6-5.6 24.2-16.5 47.8-24.4 53.1-2.1 1.4-6.3 4.6-9.3 7.2-5.7 4.9-10.4 7.8-29.9 18.6-9.6 5.3-13.6 6.8-25 9.6-15.4 3.8-18.9 4-31.6 1.8-7.2-1.2-10.8-2.5-18-6.5-12.1-6.7-23.4-16.4-32.3-27.9-11.9-15.2-14.7-24-13.9-43.5 0.5-13.1 1.5-17.2 7.8-30.1 3.1-6.5 5.3-9.5 11-14.7 9.5-8.9 15-11.4 27-12.7 5.2-0.5 12.4-1.9 16-3 8.5-2.6 9.8-2.6 18.3 1.4 8.3 3.8 14.9 9.3 17.6 14.5 3 5.9 5.3 18.6 4.8 26-0.5 6.1-3.4 14.1-5.6 15.5-0.5 0.3-4.2 1-8.3 1.6-9.8 1.5-13.3 2.7-16.9 5.7-5.7 4.7-6 14.8-0.7 20.8 3.4 3.9 15.7 6.3 24 4.6 13.8-2.7 24.9-10.4 27.9-19.3 0.6-1.8 1.6-4 2.3-4.8 2.6-3.1 3.7-6.4 6.5-19.6 3.3-15 3.6-20.7 1.5-27.6-0.8-2.6-1.7-7.5-2.1-10.8-1.7-14.8-25.2-43.4-42.9-52-3.3-1.7-10.7-3.9-16.5-5.1-10.1-2-10.8-2-20.5-0.4-11.1 1.9-13.2 2.8-19.5 8-2.4 2-8.3 6.3-13.1 9.6-16.4 11.3-35 31.1-41.9 44.8-4.5 8.9-10.7 39.2-9.6 46.5 0.4 2.3 2.2 10.4 4.1 18.1 1.8 7.7 3.6 16.8 3.9 20.2 0.3 3.5 1.2 7.9 2 9.8 2 4.8 16.2 26.4 19.5 29.6 1.4 1.4 5.2 5.5 8.3 9.1 10.5 12.1 29.2 22.4 46.5 25.7 5.6 1.1 14.9 2.3 20.7 2.7 8.9 0.6 11.4 0.4 17.3-1.4 3.7-1.1 13.3-3 21.3-4.2 15.1-2.1 16.1-2.5 35-11.8 10.3-5.1 12.6-6.8 22.4-16.2 10.6-10.3 14.8-15.2 30.6-36 9.3-12.1 18.2-28.8 24-45.1 3.7-10.2 4.2-12.8 5.1-25.4 0.5-7.7 1.4-17.1 1.9-21 1-7 0.4-16.3-1.9-30.6-1.1-6.4-7.6-22.9-14.2-36.2-3.8-7.5-17.2-26.4-24.3-34.4-2.9-3.2-6.2-7.2-7.3-8.9-1.5-2.1-4.3-3.9-9.1-5.7-9.8-3.9-23.3-11.9-33.1-19.6-10.2-8-22-15.7-32.2-21.1-9.5-4.9-15.9-5.8-44.4-6.7-17.2-0.5-22.1-0.3-27 1-10.1 2.6-16.8 5.5-22.3 9.6-2.9 2.2-7 4.3-9 4.7-5.2 0.9-22.5 10.7-29.1 16.4-3.1 2.6-11 8.2-17.5 12.4-6.6 4.3-12.9 8.9-14 10.4-1.2 1.5-6.1 7.2-11 12.7-11.4 12.8-20.1 24.5-21 28.2-0.4 1.5-1.9 4.3-3.2 6-4.4 5.8-12.8 33.6-14.9 49.3-0.8 5.8-2.5 13.5-3.8 17-1.7 4.4-2.7 9.8-3.1 16.5-0.4 5.5-1.2 13.6-1.8 18-1.2 8.7 0.1 30.7 2.8 46 0.8 4.4 2.3 13 3.3 19.1 2 11.7 4.7 18.1 13.6 32.9 2.3 3.8 6.2 10.8 8.6 15.5 5.4 10.5 14.9 20.5 26.9 28.2 4.7 3.1 14.1 10.8 21 17.2 23.1 21.6 40.4 34.3 50.9 37.1 2.5 0.7 6.9 2.2 9.7 3.3 2.8 1.1 9.6 3.2 15 4.7 5.5 1.4 13.3 3.9 17.4 5.5 4.1 1.6 10.6 3.6 14.5 4.5 3.8 0.9 8.7 2.5 10.8 3.5 3.4 1.8 5.9 2 28.1 2 19.2 0 25.1-0.3 27.9-1.5 1.9-0.8 9.1-2.2 15.9-3.1 7.5-1 17-3.1 24.3-5.4 6.6-2.1 14.5-4.3 17.5-5 9.2-2.1 35.6-16.9 53.6-30.1 18.2-13.4 29.4-24.7 48.4-48.9 10.3-13 15.6-20.7 30.3-43.5 5.7-8.8 5.6-8.6 11.1-28.5 3.6-12.7 5-20.1 6.2-32 2-19.7 1.9-45.1-0.2-60.5-0.8-6.6-2.1-16.9-2.9-23-0.7-6-1.7-12.1-2.3-13.5-0.5-1.4-1.7-6.7-2.7-11.8-1.4-7.3-2.6-10.6-5.6-15.3-2.2-3.3-3.9-6.2-3.9-6.5 0-2.8-21.5-44.4-30-57.9-2-3.3-5-8.5-6.5-11.5-9.8-19.4-39.6-52.9-66-74.1-8.7-7-24.1-17.6-29.5-20.4-1.9-1-6.7-3.9-10.5-6.4-9.7-6.5-16.8-10.4-25-13.6-3.9-1.5-7.7-3.3-8.5-4.1-3.6-3.1-24.8-8.4-46-11.5-11.8-1.7-25-4.1-29.3-5.5-7-2.1-9.6-2.4-24.5-2.4-19.9 0.1-33.3 1.2-43.9 3.9-4.3 1.1-10.7 2.2-14.3 2.6-10.9 1.1-32 6.5-39.2 10-7.6 3.9-16 9.1-30.5 19-5.7 3.8-15.7 10.4-22.3 14.5-14.8 9.2-22.7 16.2-38.2 34.3-9.9 11.5-14.3 17.8-25.6 36.5-16.7 27.8-34 65.2-37.1 80-0.6 3-2.4 8.6-4 12.5-3.6 8.8-7.3 20.8-9.5 30.2-0.9 3.9-2.3 9.5-3.1 12.5-1.9 7.6-4.6 35.2-5.2 55-0.4 14.6-0.1 18.9 2.6 38 1.6 11.8 3.4 22.8 4 24.3 0.6 1.6 2.2 9.7 3.6 18 1.4 8.4 3.8 19.7 5.4 25.2 7.5 26.2 7.5 26.1 19.9 50 1.2 2.2 4 8.3 6.4 13.5 2.4 5.2 6.1 11.9 8.4 15 5.4 7.3 5.8 9.3 3.2 16.3-2.2 6-5.3 9.4-11.8 12.7-7.2 3.7-11.7 4.2-21 2.6-4.7-0.8-9.4-1.8-10.5-2.2-3.4-1.3-12.8-7.9-17.2-12.2-4.9-4.7-6.2-7.1-13.3-24.2-2.9-6.9-6.4-14.7-7.7-17.5-1.4-2.7-4.1-10.8-6.1-18-1.9-7.1-4.3-16.1-5.3-20-1.1-3.8-3-14-4.4-22.6-1.3-8.6-2.9-17.6-3.4-20-1.1-5.1-2.8-21-3.6-35.4-0.4-5.5-1.1-13.8-1.6-18.5-1-9-2.1-47.1-1.4-50.5z"/>
		<text id="Text layer 3" style="transform: matrix(1,0,0,1,419,-447)" >
			<tspan x="0" y="15.6" class="t1">		
</tspan>
		</text>
	</g>
</svg>